<svg id="svg" fill="#000000" stroke="#000000" width="200px" height="200px" version="1.1" viewBox="144 144 512 512" xmlns="http://www.w3.org/2000/svg">
    <g id="IconSvg_bgCarrier" stroke-width="0"></g>
    <g id="IconSvg_tracerCarrier" stroke-linecap="round" stroke-linejoin="round" stroke="#CCCCCC"></g>
     <g id="IconSvg_iconCarrier">
      <g xmlns="http://www.w3.org/2000/svg">
  <path d="m450.48 331.78c0 1.7148-0.10156 3.3242-0.20312 5.0391-0.10156 0.90625-0.60547 5.2383-0.20312 2.3164-0.50391 3.4258-1.3086 6.8516-2.3164 10.176-0.50391 1.5117-1.0078 3.0234-1.5117 4.5352-0.10156 0.20312-0.90625 2.2148-0.20312 0.70703 0.70703-1.7148-0.40234 0.90625-0.60547 1.3086-1.4102 3.0234-3.125 5.9453-4.9375 8.6641-0.40234 0.60547-2.7188 3.8281-1.9141 2.7188 0.90625-1.1094-1.8125 2.1172-2.2148 2.5195-2.2148 2.418-4.6367 4.6367-7.0547 6.75-1.3086 1.1094 0.30078-0.20312 0.50391-0.40234-0.70703 0.50391-1.4102 1.0078-2.1172 1.5117-1.1094 0.70703-2.1172 1.4102-3.2227 2.1172-1.5117 0.90625-3.0234 1.7148-4.5352 2.5195-0.60547 0.30078-1.2109 0.60547-1.7148 0.80469-2.1172 1.0078 3.3242-1.1094-0.60547 0.20312-2.7188 0.90625-5.3398 1.8125-8.1602 2.418-1.5117 0.30078-3.0234 0.60547-4.5352 0.90625 3.2227-0.50391-1.7148 0.10156-2.6211 0.10156-3.125 0.10156-6.3477 0-9.4727-0.30078 3.0234 0.30078-0.90625-0.20312-1.9141-0.40234-1.7148-0.40234-3.4258-0.80469-5.1406-1.3086-1.5117-0.40234-2.9219-1.0078-4.332-1.4102-0.60547-0.20313-2.6211-1.2109 0 0-0.60547-0.30078-1.2109-0.50391-1.7148-0.80469-2.9219-1.5117-5.7422-3.0234-8.3633-4.9375-0.70703-0.50391-1.4102-1.0078-2.1172-1.5117 0.20312 0.10156 1.8125 1.5117 0.50391 0.40234-1.1094-1.0078-2.3164-2.0156-3.4258-3.0234-1.1094-1.0078-2.2148-2.1172-3.2227-3.2227-0.40234-0.50391-0.90625-1.0078-1.3086-1.4102 0 0-2.418-3.0234-1.3086-1.5117 1.0078 1.3086-0.30078-0.40234-0.40234-0.60547-0.50391-0.70703-1.0078-1.4102-1.5117-2.2148-0.80469-1.3086-1.7148-2.6211-2.418-3.9297-0.80469-1.3086-1.5117-2.7188-2.2148-4.1328-0.30078-0.60547-0.60547-1.2109-0.80469-1.8125-0.70703-1.5117 0.60547 1.9141-0.30078-0.80469-1.1094-3.0234-2.0156-6.0469-2.8203-9.168-0.30078-1.3086-0.60547-2.7188-0.80469-4.1328-0.60547-2.9219-0.10156-0.80469-0.10156-0.20312-0.10156-1.2109-0.20312-2.3164-0.30078-3.5273-0.20312-3.125-0.20312-6.2461 0-9.3711 0-0.70703 0.70703-6.0469 0.20312-3.0234 0.30078-1.8125 0.60547-3.6289 1.0078-5.4414 0.70703-2.9219 1.5117-5.7422 2.5195-8.5664 0.10156-0.40234 1.2109-3.0234 0.50391-1.3086-0.60547 1.5117 0.20312-0.50391 0.30078-0.70703 0.80469-1.6133 1.6133-3.2227 2.418-4.7344 1.5117-2.7188 3.2227-5.3398 5.0391-7.7578-1.7148 2.3164 0.80469-0.80469 1.4102-1.5117 1.2109-1.3086 2.3164-2.5195 3.6289-3.7266 1.1094-1.0078 2.2148-2.0156 3.4258-3.0234 0.40234-0.40234 2.2148-1.7148 0-0.10156 0.50391-0.40234 1.0078-0.80469 1.6133-1.1094 2.7188-1.8125 5.4414-3.5273 8.3633-4.9375 0.80469-0.40234 1.5117-0.70703 2.3164-1.1094-0.20312 0.10156-2.2148 0.90625-0.60547 0.30078 1.4102-0.50391 2.8203-1.0078 4.332-1.5117 1.5117-0.40234 2.9219-0.80469 4.4336-1.2109 0.60547-0.10156 1.3086-0.30078 1.9141-0.40234 0 0 3.9297-0.60547 1.9141-0.40234-1.4102 0.20312 2.418-0.20312 3.3242-0.20312 1.6133-0.10156 3.2227-0.10156 4.7344 0 1.6133 0.10156 3.125 0.20312 4.7344 0.30078-0.20312 0-2.418-0.50391-0.70703-0.10156 1.1094 0.20312 2.2148 0.40234 3.2227 0.60547 3.4258 0.70703 6.75 1.8125 9.9766 3.0234-2.7188-1.1094 1.3086 0.70703 2.3164 1.2109 1.5117 0.80469 3.0234 1.7148 4.5352 2.6211s2.9219 1.9141 4.2305 2.9219c-2.418-1.8125 1.3086 1.1094 1.9141 1.8125 2.6211 2.3164 4.9375 4.9375 7.1523 7.5586-1.8125-2.2148 1.0078 1.5117 1.5117 2.2148 1.0078 1.5117 1.9141 3.0234 2.7188 4.5352 1.0078 1.7148 1.9141 3.5273 2.7188 5.3398 0.70703 1.6133-0.10156-0.30078-0.20312-0.50391 0.40234 1.0078 0.80469 2.1172 1.2109 3.2227 1.2109 3.5273 2.1172 7.0547 2.8203 10.68 0.10156 0.70703 0.20312 1.4102 0.30078 2.1172-0.50391-2.9219 0 0.30078 0 0.90625 0.31641 2.1211 0.41797 4.3398 0.41797 6.4531 0.10156 7.8594 6.8516 15.516 15.113 15.113 8.1602-0.40234 15.215-6.6484 15.113-15.113-0.30078-35.066-20.859-67.207-53.809-80.207-31.336-12.293-68.215-1.2109-88.973 24.887-22.27 28.113-25.797 67.914-7.8594 99.25 17.332 30.23 51.992 46.453 86.152 39.398 38.594-7.9609 64.086-45.242 64.488-83.332 0.10156-7.8594-7.0547-15.516-15.113-15.113-8.2617 0.40625-15.012 6.6562-15.113 15.117z"></path>
  <path d="m287.95 538.45c0-4.4336-0.10156-8.7656 0.10156-13.199 0.10156-1.1094 0.20312-2.3164 0.30078-3.4258 0.20312-2.418-0.40234 2.3164 0-0.10156 0.30078-1.8125 0.70703-3.5273 1.1094-5.3398 0.40234-1.7148 0.90625-3.4258 1.5117-5.1406 0.40234-1.0078 0.70703-2.1172 1.1094-3.125-0.80469 2.0156-0.20313 0.40234 0.30078-0.70703 1.5117-3.2227 3.2227-6.2461 5.2383-9.168 0.60547-0.90625 1.2109-1.8125 1.9141-2.7188-0.40234 0.50391-1.8125 2.0156 0.10156 0 1.3086-1.4102 2.6211-2.9219 4.0312-4.332 1.2109-1.2109 2.5195-2.418 3.8281-3.5273 0.50391-0.50391 2.8203-2.3164 0.50391-0.50391 0.70703-0.50391 1.4102-1.0078 2.1172-1.5117 3.125-2.1172 6.3477-3.9297 9.6719-5.6445 0.70703-0.30078 3.4258-1.4102 0.70703-0.30078 0.80469-0.30078 1.7148-0.60547 2.5195-0.90625 1.7148-0.60547 3.4258-1.1094 5.1406-1.6133 1.7148-0.50391 3.5273-0.80469 5.3398-1.2109 0.60547-0.10156 2.9219-0.40234 0.10156-0.10156 1.4102-0.20313 2.7188-0.30078 4.1328-0.40234 2.1172-0.10156 4.2305-0.10156 6.3477-0.10156h19.648 64.992 23.879 4.8359c1.5117 0 3.0234 0 4.5352 0.10156 0.80469 0 6.0469 0.80469 2.8203 0.20312 2.2148 0.40234 4.4336 0.80469 6.6484 1.4102s4.2305 1.3086 6.4492 2.0156c0.50391 0.20312 2.7188 1.1094 0.10156 0 1.0078 0.40234 2.0156 0.90625 3.0234 1.4102 3.7266 1.9141 7.3555 4.0312 10.68 6.5508-2.2148-1.7148-0.40234-0.30078 0 0.10156 1.0078 0.90625 2.0156 1.7148 2.9219 2.6211 1.4102 1.3086 2.8203 2.7188 4.1328 4.2305 0.70703 0.80469 1.4102 1.6133 2.1172 2.5195-1.4102-1.6133-0.30078-0.40234 0.40234 0.60547 1.1094 1.6133 2.2148 3.3242 3.2227 4.9375 1.1094 1.9141 2.1172 3.9297 3.0234 5.8438 1.3086 2.6211 0.30078 0.60547 0.10156 0.10156 0.50391 1.2109 0.90625 2.5195 1.4102 3.8281 0.60547 1.9141 1.2109 3.8281 1.6133 5.8438 0.20312 0.90625 0.40234 1.8125 0.60547 2.6211 0.10156 0.70703 0.30078 1.3086 0.40234 2.0156-0.20313-1.5117-0.20313-1.7148-0.10156-0.60547 0.60547 5.543 0.40234 11.082 0.40234 16.625 0 7.8594 6.9531 15.516 15.113 15.113 8.1602-0.40234 15.113-6.6484 15.113-15.113 0-15.516-1.4102-30.129-7.8594-44.438-7.1523-15.922-19.852-29.523-35.066-37.988-13-7.2539-27.508-10.781-42.32-10.883h-18.941-68.719c-18.137 0-37.484-1.6133-54.816 4.6367-19.445 7.0547-36.273 20.656-46.25 38.895-8.6641 15.719-10.578 32.242-10.578 49.879 0 7.8594 6.9531 15.516 15.113 15.113 8.2617-0.40234 15.215-6.6484 15.215-15.113z"></path>
 </g>

      </g>
      </svg>